<?xml version="1.0" standalone="no"?>
<!DOCTYPE svg PUBLIC "-//W3C//DTD SVG 20010904//EN"
 "http://www.w3.org/TR/2001/REC-SVG-20010904/DTD/svg10.dtd">
<svg version="1.0" xmlns="http://www.w3.org/2000/svg"
 width="400.000000pt" height="400.000000pt" viewBox="0 0 400.000000 400.000000"
 preserveAspectRatio="xMidYMid meet">
<metadata>
Created by potrace 1.11, written by Peter Selinger 2001-2013
</metadata>
<g transform="translate(0.000000,400.000000) scale(0.100000,-0.100000)"
fill="#000000" stroke="none">
<path d="M0 2000 l0 -2000 2000 0 2000 0 0 2000 0 2000 -2000 0 -2000 0 0
-2000z m1205 855 c-14 -36 -41 -105 -60 -155 -19 -49 -51 -131 -71 -181 -33
-85 -241 -631 -270 -709 -7 -19 -31 -80 -53 -135 l-40 -100 -135 -3 -136 -3 9
23 c5 13 28 73 51 133 47 125 74 193 135 350 24 61 76 196 115 300 69 182 114
300 165 430 13 33 29 72 34 88 l11 27 134 0 135 0 -24 -65z m345 55 c0 -6 -6
-23 -14 -38 -7 -15 -55 -137 -106 -272 -51 -135 -116 -306 -145 -380 -77 -196
-115 -294 -186 -482 l-63 -168 -134 0 c-151 0 -141 -9 -104 85 10 28 69 181
130 340 60 160 139 364 174 455 36 91 91 234 123 318 l57 152 134 0 c87 0 134
-4 134 -10z m-843 -231 c89 -55 85 -197 -7 -244 -70 -36 -163 -7 -195 62 -28
59 -16 119 34 165 35 33 47 38 87 38 30 0 59 -8 81 -21z m1294 -2 c18 -12 39
-34 46 -47 16 -32 16 -108 0 -140 -35 -69 -141 -92 -204 -44 -79 60 -84 155
-11 220 29 27 44 32 94 33 27 1 52 -7 75 -22z m-352 -349 c-11 -29 -58 -152
-104 -273 -46 -121 -106 -278 -133 -350 l-50 -130 -137 -3 c-128 -2 -137 -1
-130 15 4 10 31 81 61 158 29 77 71 187 94 245 39 100 117 303 139 363 l11 27
135 0 135 0 -21 -52z m335 30 c-7 -24 -51 -140 -109 -288 -54 -137 -100 -257
-146 -382 l-44 -118 -136 0 -137 0 58 148 c31 81 101 263 155 405 l99 257 134
0 133 0 -7 -22z m656 20 c0 -2 -25 -68 -56 -148 -57 -150 -67 -175 -182 -475
l-69 -180 -137 -3 c-76 -1 -135 1 -132 6 3 4 54 138 115 298 60 159 128 337
151 397 l42 107 134 0 c74 0 134 -1 134 -2z m323 -10 c-4 -7 -13 -26 -19 -43
-12 -33 -261 -684 -278 -727 l-10 -28 -133 0 c-78 0 -133 4 -133 10 0 5 4 19
10 32 20 49 165 423 241 625 l54 143 138 0 c108 0 136 -3 130 -12z m301 -55
c-14 -38 -38 -102 -54 -143 -15 -41 -33 -86 -38 -100 -12 -27 -97 -248 -156
-402 l-38 -98 -134 0 -134 0 24 63 c35 93 196 515 216 567 9 25 30 75 45 113
l27 67 134 0 134 0 -26 -67z m346 62 c0 -3 -16 -46 -35 -95 -19 -49 -77 -201
-129 -337 -52 -137 -120 -313 -151 -393 -31 -80 -88 -229 -127 -332 l-71 -188
-134 0 -134 0 7 23 c3 12 26 72 49 132 24 61 69 178 100 260 60 160 87 230
140 365 48 122 94 243 160 418 l58 152 133 0 c74 0 134 -2 134 -5z m-1589
-574 c35 -35 39 -44 39 -91 0 -63 -20 -101 -70 -129 -123 -69 -256 61 -191
187 26 52 61 71 130 72 49 0 57 -3 92 -39z m745 -516 c63 -41 83 -134 42 -195
-50 -73 -135 -88 -204 -35 -41 32 -54 60 -54 120 0 103 128 168 216 110z"/>
</g>
</svg>
